<?xml version="1.0" encoding="UTF-8"?>
<svg xmlns="http://www.w3.org/2000/svg" xmlns:xlink="http://www.w3.org/1999/xlink" viewBox="0 0 100.05 120.27">
  <defs>
    <style>
      .cls-1 {
        fill: url(#Degradado_sin_nombre_33);
      }

      .cls-2 {
        fill: url(#Degradado_sin_nombre_47);
        opacity: .15;
      }

      .cls-3 {
        fill: url(#Degradado_sin_nombre_19);
      }

      .cls-4 {
        fill: url(#Degradado_sin_nombre_68);
      }

      .cls-5 {
        isolation: isolate;
      }

      .cls-5, .cls-6, .cls-7, .cls-8 {
        fill: none;
      }

      .cls-9 {
        fill: url(#Degradado_sin_nombre_33-2);
      }

      .cls-7 {
        clip-path: url(#clippath);
      }

      .cls-10 {
        fill: url(#Degradado_sin_nombre_26);
      }

      .cls-8 {
        mix-blend-mode: color-dodge;
        stroke: url(#Degradado_sin_nombre_19-2);
        stroke-miterlimit: 10;
        stroke-width: .5px;
      }
    </style>
    <linearGradient id="Degradado_sin_nombre_19" data-name="Degradado sin nombre 19" x1="15.28" y1="116.1" x2="81.31" y2="1.73" gradientUnits="userSpaceOnUse">
      <stop offset="0" stop-color="#13235b"/>
      <stop offset="1" stop-color="#3e3cc1"/>
    </linearGradient>
    <linearGradient id="Degradado_sin_nombre_47" data-name="Degradado sin nombre 47" x1="49.51" y1="29.87" x2="49.51" y2="12.2" gradientUnits="userSpaceOnUse">
      <stop offset="0" stop-color="#13235b" stop-opacity="0"/>
      <stop offset="1" stop-color="#fff"/>
    </linearGradient>
    <clipPath id="clippath">
      <path class="cls-6" d="m7.36,102.22l7.55-1.07c1.36-.16,2.6.76,2.87,2.1l2.97,15.25c.36,1.83,2.87,2.08,3.58.36l12.83-18.3c.36-.88,1.18-1.49,2.12-1.6l52.85-6.44c1.32-.15,2.32-1.27,2.32-2.6V10.82c0-1.56-1.36-2.78-2.91-2.6L7.36,18.18v84.04Z"/>
    </clipPath>
    <linearGradient id="Degradado_sin_nombre_26" data-name="Degradado sin nombre 26" x1="20.97" y1="134.63" x2="122.37" y2="134.63" gradientTransform="translate(-20.53 -76.32) rotate(-6.88) scale(.98 1.03) skewX(-6.73)" gradientUnits="userSpaceOnUse">
      <stop offset="0" stop-color="#e2e8f7"/>
      <stop offset="1" stop-color="#fff"/>
    </linearGradient>
    <linearGradient id="Degradado_sin_nombre_33" data-name="Degradado sin nombre 33" x1="22.87" y1="134.63" x2="120.47" y2="134.63" gradientTransform="translate(-20.53 -76.32) rotate(-6.88) scale(.98 1.03) skewX(-6.73)" gradientUnits="userSpaceOnUse">
      <stop offset="0" stop-color="#de1f31"/>
      <stop offset="1" stop-color="#a50a3b"/>
    </linearGradient>
    <radialGradient id="Degradado_sin_nombre_68" data-name="Degradado sin nombre 68" cx="34.59" cy="131.06" fx="34.59" fy="131.06" r="48.27" gradientTransform="translate(13.28 -76.32) rotate(-6.48) scale(1.04) skewX(-5.93)" gradientUnits="userSpaceOnUse">
      <stop offset="0" stop-color="#fff"/>
      <stop offset="1" stop-color="#e2e8f7"/>
    </radialGradient>
    <linearGradient id="Degradado_sin_nombre_33-2" data-name="Degradado sin nombre 33" x1="20.07" y1="135.26" x2="123.27" y2="135.26" xlink:href="#Degradado_sin_nombre_33"/>
    <linearGradient id="Degradado_sin_nombre_19-2" data-name="Degradado sin nombre 19" x1="7.11" y1="64.11" x2="94.69" y2="64.11" xlink:href="#Degradado_sin_nombre_19"/>
  </defs>
  <g class="cls-5">
    <g id="OBJECTS">
      <g>
        <g>
          <path class="cls-3" d="m7.36,102.22l7.55-1.07c1.36-.16,2.6.76,2.87,2.1l2.97,15.25c.36,1.83,2.87,2.08,3.58.36l12.83-18.3c.36-.88,1.18-1.49,2.12-1.6l52.85-6.44c1.32-.15,2.32-1.27,2.32-2.6V10.82c0-1.56-1.36-2.78-2.91-2.6L7.36,18.18v84.04Z"/>
          <path class="cls-2" d="m7.33,33.01v-13.35l81.62-9.34c1.46-.17,2.73.97,2.73,2.44v11.16L7.33,33.01Z"/>
        </g>
        <g class="cls-7">
          <g>
            <polygon class="cls-10" points="98.73 4.93 93.14 0 49.98 48.62 6.05 9.89 .56 16.08 44.49 54.8 1.32 103.42 6.91 108.35 50.08 59.73 94 98.45 99.5 92.27 55.57 53.54 98.73 4.93"/>
            <polygon class="cls-1" points="96.87 3.29 95.01 1.64 50.01 52.32 4.22 11.96 2.39 14.02 48.18 54.38 3.18 105.06 5.05 106.7 50.04 56.03 95.83 96.39 97.66 94.33 51.87 53.96 96.87 3.29"/>
            <polygon class="cls-4" points="99.95 42.6 55.85 47.61 55.48 4.7 43.72 6.04 44.1 48.95 0 53.96 .1 65.75 44.2 60.74 44.59 104.96 56.34 103.62 55.96 59.4 100.05 54.39 99.95 42.6"/>
            <polygon class="cls-9" points="99.97 45.22 53.26 50.53 52.87 5 46.34 5.74 46.73 51.27 .02 56.58 .08 63.13 46.79 57.82 47.2 104.66 53.73 103.92 53.32 57.08 100.03 51.77 99.97 45.22"/>
          </g>
        </g>
        <path class="cls-8" d="m7.36,102.22l7.55-1.07c1.36-.16,2.6.76,2.87,2.1l2.97,15.25c.36,1.83,2.87,2.08,3.58.36l12.83-18.3c.36-.88,1.18-1.49,2.12-1.6l52.85-6.44c1.32-.15,2.32-1.27,2.32-2.6V10.82c0-1.56-1.36-2.78-2.91-2.6L7.36,18.18v84.04Z"/>
      </g>
    </g>
  </g>
</svg>